<?xml version="1.0" encoding="UTF-8"?>
<svg xmlns="http://www.w3.org/2000/svg" width="209.99999mm" height="297.00002mm" version="1.1" viewBox="0 0 595.27557 841.88983">
  <defs>
    <style>
      .cls-1 {
        fill: none;
        stroke: #000;
        stroke-miterlimit: 10;
      }
    </style>
  </defs>
  <!-- Generator: Adobe Illustrator 28.7.8, SVG Export Plug-In . SVG Version: 1.2.0 Build 200)  -->
  <g>
    <g id="_レイヤー_1" data-name="レイヤー_1">
      <g id="_レイヤー_1-2" data-name="_レイヤー_1">
        <g id="_レイヤー_1-2">
          <g id="_レイヤー_1-2-2" data-name="_レイヤー_1-2">
            <path class="cls-1" d="M125.39236,391.08759c-39.23335-19.35792-95.95911-105.74811-28.7367-133.70099,48.52545-20.17818,85.69386,11.97567,111.16113,33.63033,7.57135-18.37364,30.11331-36.25512,59.71037-40.19232,25.33557-3.37032,55.75262,0,68.14212,20.34224,34.07108-40.35638,129.91742-48.23079,193.24136,7.54631,48.30786,42.55058,26.32697,156.02152-32.17822,190.15556,31.66132,7.86289,70.72327,35.2708,65.90515,71.36189-8.51678,63.79646-78.13843,91.79939-140.70191,37.55515-13.07779,40.02829-107.60385,31.32477-123.43484-29.70198-31.66199,38.71585-144.14342,103.58046-221.92179,43.20995-81.85002-63.53088,7.1702-189.06222,48.81328-200.20609l.00004-.00003Z"/>
          </g>
        </g>
      </g>
    </g>
  </g>
</svg>