<?xml version="1.0" encoding="UTF-8"?>
<svg xmlns="http://www.w3.org/2000/svg" width="209.99999mm" height="297.00002mm" version="1.1" viewBox="0 0 595.27557 841.88983">
  <defs>
    <style>
      .cls-1 {
        fill: none;
        stroke: #000;
        stroke-miterlimit: 10;
      }
    </style>
  </defs>
  <!-- Generator: Adobe Illustrator 28.7.8, SVG Export Plug-In . SVG Version: 1.2.0 Build 200)  -->
  <g>
    <g id="_レイヤー_1" data-name="レイヤー_1">
      <g id="_レイヤー_1-2" data-name="_レイヤー_1">
        <g id="_レイヤー_1-2">
          <g id="_レイヤー_1-2-2" data-name="_レイヤー_1-2">
            <path class="cls-1" d="M125.39236,391.08759c-39.23335-19.35792-92.47897-93.39858-32.21529-131.61777,44.38088-28.14633,89.17245,9.89245,114.63972,31.5471,28.8717-81.62123,125.9226-77.49141,127.85249-19.85008,34.07108-40.35638,129.40248-53.17775,193.24136,7.54631,46.64404,44.36818,26.32697,156.02152-32.17822,190.15556,31.66132,7.86289,70.72327,35.2708,65.90515,71.36189-8.51678,63.79646-78.13843,91.79939-140.70191,37.55515-5.08355,51.81966-95.9397,59.04685-123.43484-29.70198-31.66199,38.71585-145.44129,113.01155-221.92179,43.20995C.04838,521.44633,83.74924,402.23149,125.39232,391.08762l.00004-.00003Z"/>
          </g>
        </g>
      </g>
    </g>
  </g>
</svg>